<svg width="32" height="32" viewBox="0 0 32 32" fill="none" xmlns="http://www.w3.org/2000/svg">
<path d="M23 4H5C3.89543 4 3 4.89543 3 6V30C3 31.1046 3.89543 32 5 32H23C24.1046 32 25 31.1046 25 30V6C25 4.89543 24.1046 4 23 4Z" fill="#D6DCE1"/>
<path d="M6 4.5V3C6 1.89543 6.89543 1 8 1H26C27.1046 1 28 1.89543 28 3V26C28 27.1046 27.1046 28 26 28H24.5" stroke="#D6DCE1" stroke-width="2"/>
<path d="M8 12H20" stroke="white" stroke-width="2" stroke-linecap="round"/>
<path d="M8 18H20" stroke="white" stroke-width="2" stroke-linecap="round"/>
<path d="M8 24H20" stroke="white" stroke-width="2" stroke-linecap="round"/>
</svg>
