<svg width="13" height="14" viewBox="0 0 13 14" fill="none" xmlns="http://www.w3.org/2000/svg">
<path d="M11.5 1.5H10V1C10 0.867392 9.94732 0.740215 9.85355 0.646447C9.75979 0.552678 9.63261 0.5 9.5 0.5C9.36739 0.5 9.24021 0.552678 9.14645 0.646447C9.05268 0.740215 9 0.867392 9 1V1.5H4V1C4 0.867392 3.94732 0.740215 3.85355 0.646447C3.75979 0.552678 3.63261 0.5 3.5 0.5C3.36739 0.5 3.24021 0.552678 3.14645 0.646447C3.05268 0.740215 3 0.867392 3 1V1.5H1.5C1.23488 1.5003 0.980699 1.60576 0.793228 1.79323C0.605757 1.9807 0.500303 2.23488 0.5 2.5V12.5C0.500303 12.7651 0.605757 13.0193 0.793228 13.2068C0.980699 13.3942 1.23488 13.4997 1.5 13.5H11.5C11.7651 13.4997 12.0193 13.3942 12.2068 13.2068C12.3942 13.0193 12.4997 12.7651 12.5 12.5V2.5C12.4997 2.23488 12.3942 1.9807 12.2068 1.79323C12.0193 1.60576 11.7651 1.5003 11.5 1.5ZM3 2.5V3C3 3.13261 3.05268 3.25979 3.14645 3.35355C3.24021 3.44732 3.36739 3.5 3.5 3.5C3.63261 3.5 3.75979 3.44732 3.85355 3.35355C3.94732 3.25979 4 3.13261 4 3V2.5H9V3C9 3.13261 9.05268 3.25979 9.14645 3.35355C9.24021 3.44732 9.36739 3.5 9.5 3.5C9.63261 3.5 9.75979 3.44732 9.85355 3.35355C9.94732 3.25979 10 3.13261 10 3V2.5H11.5L11.5001 4.5H1.5V2.5H3ZM11.5 12.5H1.5V5.5H11.5002L11.5006 12.5H11.5Z" fill="#9BA7B0"/>
</svg>
