<svg width="18" height="18" viewBox="0 0 18 18" fill="none" xmlns="http://www.w3.org/2000/svg">
<path d="M16 2H10C9.45 2 9 1.55 9 1C9 0.45 9.45 0 10 0H16C17.1 0 18 0.9 18 2V16C18 17.1 17.1 18 16 18H10C9.45 18 9 17.55 9 17C9 16.45 9.45 16 10 16H16V2Z" fill="#9BA7B0"/>
<path d="M0.35 8.65052L3.14 5.86052C3.46 5.54052 4 5.76052 4 6.21052V8.00052H11C11.55 8.00052 12 8.45052 12 9.00052C12 9.55052 11.55 10.0005 11 10.0005H4V11.7905C4 12.2405 3.46 12.4605 3.15 12.1405L0.360001 9.35052C0.160001 9.16052 0.160001 8.84052 0.35 8.65052Z" fill="#9BA7B0"/>
</svg>
