<svg width="16" height="16" viewBox="0 0 16 16" fill="none" xmlns="http://www.w3.org/2000/svg">
<path d="M13.8333 2.16667H8.83333C8.375 2.16667 8 1.79167 8 1.33333C8 0.875 8.375 0.5 8.83333 0.5H13.8333C14.75 0.5 15.5 1.25 15.5 2.16667V13.8333C15.5 14.75 14.75 15.5 13.8333 15.5H8.83333C8.375 15.5 8 15.125 8 14.6667C8 14.2083 8.375 13.8333 8.83333 13.8333H13.8333V2.16667Z" fill="#9BA7B0"/>
<path d="M0.791667 7.70836L3.11667 5.38336C3.38333 5.11669 3.83333 5.30003 3.83333 5.67503V7.16669H9.66667C10.125 7.16669 10.5 7.54169 10.5 8.00003C10.5 8.45836 10.125 8.83336 9.66667 8.83336H3.83333V10.325C3.83333 10.7 3.38333 10.8834 3.125 10.6167L0.8 8.29169C0.633333 8.13336 0.633333 7.86669 0.791667 7.70836Z" fill="#9BA7B0"/>
</svg>
