<svg width="12" height="14" viewBox="0 0 12 14" fill="none" xmlns="http://www.w3.org/2000/svg">
<path d="M5.99935 0.333008C3.19935 0.333008 0.666016 2.47967 0.666016 5.79967C0.666016 7.91967 2.29935 10.413 5.55935 13.2863C5.81268 13.5063 6.19268 13.5063 6.44602 13.2863C9.69935 10.413 11.3327 7.91967 11.3327 5.79967C11.3327 2.47967 8.79935 0.333008 5.99935 0.333008ZM5.99935 6.99967C5.26602 6.99967 4.66602 6.39967 4.66602 5.66634C4.66602 4.93301 5.26602 4.33301 5.99935 4.33301C6.73268 4.33301 7.33268 4.93301 7.33268 5.66634C7.33268 6.39967 6.73268 6.99967 5.99935 6.99967Z" fill="#33A2B6"/>
</svg>
