<svg width="14" height="11" viewBox="0 0 14 11" fill="none" xmlns="http://www.w3.org/2000/svg">
<path d="M12.334 0.166016H1.66732C0.933984 0.166016 0.340651 0.766016 0.340651 1.49935L0.333984 9.49935C0.333984 10.2327 0.933984 10.8327 1.66732 10.8327H12.334C13.0673 10.8327 13.6673 10.2327 13.6673 9.49935V1.49935C13.6673 0.766016 13.0673 0.166016 12.334 0.166016ZM12.0673 2.99935L7.35398 5.94602C7.14065 6.07935 6.86065 6.07935 6.64732 5.94602L1.93398 2.99935C1.76732 2.89268 1.66732 2.71268 1.66732 2.51935C1.66732 2.07268 2.15398 1.80602 2.53398 2.03935L7.00065 4.83268L11.4673 2.03935C11.8473 1.80602 12.334 2.07268 12.334 2.51935C12.334 2.71268 12.234 2.89268 12.0673 2.99935Z" fill="#9BA7B0"/>
</svg>
