<svg width="100" height="67" viewBox="0 0 100 67" fill="none" xmlns="http://www.w3.org/2000/svg">
<path d="M67.9141 3.14852C67.9141 3.14852 66.2839 2.9674 63.4403 2.68968C60.6449 2.41799 58.725 1.12598 56.0263 0.624875C53.883 0.226404 51.2929 0.0573556 50.4357 0.00905616C50.2424 -0.00301872 50.0492 -0.00301872 49.8561 0.00905616C48.9987 0.0573556 46.4087 0.226404 44.2654 0.624875C41.5726 1.12598 39.6467 2.41799 36.8514 2.68968C34.0078 2.96136 32.3776 3.14852 32.3776 3.14852C32.3776 3.14852 30.5 3.38398 30.5 3.64963C30.5 3.91528 30.5 24.6358 30.5 24.6358C30.5 24.6358 30.5181 28.3428 31.2728 31.1261C32.0275 33.9092 33.1625 37.8759 36.4227 41.764C39.683 45.652 42.6896 47.6384 42.6896 47.6384C42.6896 47.6384 48.0086 50.965 50.1519 51.5809C50.1519 50.2767 50.1519 6.08875 50.1519 0.570538C50.1519 6.08875 50.1519 50.2767 50.1519 51.5809C52.2891 50.965 57.6142 47.6384 57.6142 47.6384C57.6142 47.6384 60.6208 45.6461 63.881 41.764C67.1412 37.8819 68.2763 33.9092 69.031 31.1261C69.7857 28.3428 69.8037 24.6358 69.8037 24.6358C69.8037 24.6358 69.8037 3.91528 69.8037 3.65567C69.8037 3.38398 67.9141 3.14852 67.9141 3.14852Z" fill="url(#paint0_linear_784_14933)"/>
<path d="M33.5977 23.875C33.5977 24.7081 33.5977 25.2032 33.5977 25.2032C33.5977 25.2032 33.6097 28.3246 34.2497 30.6671C34.8836 33.0096 35.8436 36.3544 38.5906 39.6266C41.3376 42.8989 43.8674 44.5773 43.8674 44.5773C43.8674 44.5773 48.2022 47.2881 50.0617 47.8677V23.875H33.5977Z" fill="#741C2F"/>
<path d="M50.0617 23.6939V3.22705C50.0135 3.22705 49.9591 3.23309 49.9108 3.23309C49.1923 3.27535 47.0069 3.42025 45.2016 3.75231C42.9316 4.17493 41.3135 5.26167 38.9589 5.49109C36.5681 5.72051 35.1915 5.87749 35.1915 5.87749C35.1915 5.87749 33.5977 6.07672 33.5977 6.30011C33.5977 6.48123 33.5977 19.2444 33.5977 23.7H50.0617V23.6939Z" fill="#616086"/>
<path d="M66.7005 23.875C66.7005 24.7081 66.7005 25.2032 66.7005 25.2032C66.7005 25.2032 66.6884 28.3246 66.0485 30.6671C65.4146 33.0096 64.4545 36.3544 61.7075 39.6266C58.9605 42.8989 56.4308 44.5773 56.4308 44.5773C56.4308 44.5773 52.0959 47.2881 50.2363 47.8677V23.875H66.7005Z" fill="#616086"/>
<path d="M50.2422 23.6939V3.22705C50.2905 3.22705 50.3448 3.23309 50.3931 3.23309C51.1116 3.27535 53.2972 3.42025 55.1023 3.75231C57.3724 4.17493 58.9904 5.26167 61.345 5.49109C63.7359 5.72051 65.1124 5.87749 65.1124 5.87749C65.1124 5.87749 66.7062 6.07672 66.7062 6.30011C66.7062 6.48123 66.7062 19.2444 66.7062 23.7H50.2422V23.6939Z" fill="#741C2F"/>
<path d="M38.3368 17.6207C38.4575 16.5159 38.687 15.5922 38.9767 14.8194C41.0778 13.8112 42.5207 13.5757 43.0158 13.5395C43.209 13.5274 43.4022 13.5878 43.5531 13.7085L46.5296 16.0269C46.5296 16.0269 44.1991 13.9259 43.4807 13.2859C41.3857 13.2678 39.508 14.4391 38.9949 14.7892C40.4076 11.0642 43.2935 10.883 43.2935 10.883C43.2935 10.883 42.1404 10.4604 40.9147 10.0317C39.6167 10.6536 39.0432 11.3177 38.4032 12.5433C38.1315 13.0625 38.0772 14.0647 38.1074 15.0428C36.8033 14.0588 34.666 13.4429 34.666 13.4429C34.666 13.4429 34.666 13.4429 34.666 13.7387C35.6924 13.8414 37.89 15.0428 38.1134 15.1636C38.1617 16.4254 38.3368 17.6207 38.3368 17.6207Z" fill="white"/>
<path d="M47.1142 17.4692C47.1142 17.4692 46.4682 17.3063 44.4397 17.1493C42.0126 17.107 38.7101 18.1455 38.7101 18.1455C38.7101 18.1455 40.787 17.0104 43.2865 16.787C43.3348 16.781 43.4193 16.7749 43.4737 16.7629C44.7053 16.5938 46.921 16.9259 46.921 16.9259L46.7761 16.4308C46.1784 16.1894 45.0736 16.1772 44.4336 16.147C41.5659 16.1169 39.181 17.433 38.2332 17.9402C36.9713 17.1855 34.665 16.5395 34.665 16.5395V17.6141L37.5026 18.713L34.665 17.922V18.4111L37.4302 19.1537L34.665 18.6767V20.2223H37.3094C37.3094 20.2223 37.5751 20.8925 38.2634 20.8925C38.9516 20.8925 39.169 20.2404 39.169 20.2404H48.0742L47.1142 17.4692Z" fill="white"/>
<path d="M58.5135 14.125H57.4268V20.3979H58.5135V14.125Z" fill="white"/>
<path d="M60.9462 14.125H59.8594V20.3979H60.9462V14.125Z" fill="white"/>
<path d="M63.3798 14.125H62.293V20.3979H63.3798V14.125Z" fill="white"/>
<path d="M65.8133 14.125H64.7266V20.3979H65.8133V14.125Z" fill="white"/>
<path d="M57.0645 12.7907H65.8187V10.8648L63.8264 10.1343L57.0645 12.7907Z" fill="white"/>
<path d="M55.0723 12.1319L63.8266 8.75098L65.819 9.53585V10.1335L63.8266 9.4151L55.3138 12.7357L55.0723 12.1319Z" fill="white"/>
<path d="M46.6148 34.1985C46.4759 32.9126 45.6669 32.7013 45.6669 32.7013C45.6669 32.7013 42.9803 31.3066 42.932 31.2523C42.8836 31.198 42.8475 31.0349 42.8595 30.89C42.8716 30.7452 43.2399 29.8758 43.2399 29.8758L43.3305 29.8697C43.3727 29.8637 43.4089 29.8335 43.4211 29.7972C43.4814 29.5859 43.6504 28.952 43.6806 28.7709C43.7229 28.5535 43.4754 28.5837 43.4754 28.5837C43.4754 28.5837 43.9946 26.1205 41.6822 26.1265C39.3699 26.1326 39.8589 28.3664 39.8589 28.3664L39.8468 28.5717C39.8468 28.5717 39.7804 28.5354 39.6536 28.6139C39.5269 28.6924 39.7865 29.8637 39.9072 29.8697C40.0219 29.8758 40.034 29.9784 40.034 29.9784L40.4083 30.9022C40.4747 31.0651 40.4083 31.2523 40.2453 31.3368C39.8046 31.5602 38.8386 32.0613 37.2507 32.8763C37.0032 33.0031 36.9006 33.305 37.0213 33.5526C40.7343 41.3107 47.0435 44.3716 47.0435 44.3716C47.0435 44.3716 46.7537 35.4846 46.6148 34.1985ZM41.8513 37.8452L40.04 31.9949L40.7283 33.2023L41.6883 31.9405L42.6362 33.0877L43.2942 32.0552L41.8513 37.8452Z" fill="white"/>
<path d="M58.3444 34.7785C58.1452 34.1083 57.9761 32.9974 57.8735 32.5386C57.8735 32.5386 57.5535 32.8706 55.9596 35.6177C54.3657 38.3647 54.6494 39.7171 54.6494 39.7171C54.6494 39.7171 57.8735 35.4244 58.3444 34.7785Z" fill="white"/>
<path d="M62.9996 26.2303C62.0457 26.7917 61.5265 27.3955 61.5265 27.3955C61.5265 27.3955 61.8707 29.2188 61.6714 29.9372L61.5869 28.7478C61.5869 28.7478 61.3454 27.8663 61.2548 27.8241C61.1642 27.7818 60.4458 28.7539 60.4458 28.7539L60.2466 31.7545L60.1318 31.1387C60.1318 31.1387 59.9326 28.9773 59.8601 28.7599C59.7877 28.5426 59.7394 29.092 59.51 29.6172C59.2806 30.1425 58.3629 31.8873 58.3448 32.147C58.3266 32.4126 58.5259 34.3808 58.5259 34.3808L60.8986 31.5432L53.3337 42.0423C53.3337 42.0423 53.0137 42.6279 53.0378 42.8452C53.0621 43.0566 52.6152 43.8173 52.6152 43.8173L55.3924 40.2129C55.3924 40.2129 56.5034 40.3579 58.3508 37.9489C60.1983 35.5399 63.543 31.2171 64.0863 28.289C64.3521 26.7072 63.9536 25.6687 62.9996 26.2303Z" fill="white"/>
<path d="M36.0904 64.7066H32.5947V64.4651C33.3313 64.441 33.6996 64.1874 33.6996 63.6983V57.3833C33.6996 56.8942 33.3313 56.6406 32.5947 56.6165V56.375H36.0904V56.6165C35.3538 56.6406 34.9856 56.9003 34.9856 57.3833V62.4788L39.0246 57.3833C39.0246 56.8942 38.6563 56.6406 37.9197 56.6165V56.375H41.4214V56.6165C40.6789 56.6406 40.3106 56.9003 40.3106 57.3833V63.6983C40.3106 64.1874 40.6789 64.441 41.4214 64.4651V64.7066H37.9197V64.4651C38.6563 64.441 39.0246 64.1874 39.0246 63.6983V58.2646L34.9856 63.3301V63.6983C34.9856 64.1874 35.3538 64.441 36.0904 64.4651V64.7066Z" fill="#74613E"/>
<path d="M50.4834 66.9999H50.2479C50.0849 66.4022 49.9882 66.0641 49.9581 65.9796C49.789 65.4906 49.614 65.1585 49.4268 64.9955C49.2094 64.8023 48.8532 64.7057 48.3642 64.7057H41.7109V64.4642C42.4475 64.4401 42.8158 64.1864 42.8158 63.6975V57.3823C42.8158 56.8933 42.4475 56.6396 41.7109 56.6155V56.374H45.2067V56.6155C44.47 56.6396 44.1017 56.8993 44.1017 57.3823V63.4378C44.1017 63.951 44.47 64.2046 45.2067 64.2046H46.8066C47.5491 64.2046 47.9174 63.951 47.9174 63.4378V57.3823C47.9174 56.8933 47.5491 56.6396 46.8066 56.6155V56.374H50.3083V56.6155C49.5717 56.6396 49.2034 56.8993 49.2034 57.3823V63.1601C49.2034 63.6371 49.3 63.9571 49.4872 64.1201C49.6622 64.265 49.9882 64.3495 50.4834 64.3616V66.9999Z" fill="#74613E"/>
<path d="M58.8703 64.7057H55.3747V64.4642C56.1113 64.4401 56.4796 64.1864 56.4796 63.6975V60.727C55.4893 61.0772 54.6623 61.2583 54.0042 61.2583C52.4827 61.2583 51.722 60.6545 51.722 59.4471V57.3823C51.722 56.8933 51.3537 56.6396 50.6172 56.6155V56.374H54.1128V56.6155C53.3762 56.6396 53.008 56.8993 53.008 57.3823V59.3626C53.008 60.2923 53.5212 60.7572 54.5476 60.7572C55.109 60.7572 55.7551 60.6365 56.4855 60.395V57.3823C56.4855 56.8933 56.1173 56.6396 55.3807 56.6155V56.374H58.8764V56.6155C58.1399 56.6396 57.7716 56.8993 57.7716 57.3823V63.6975C57.7716 64.1864 58.1399 64.4401 58.8764 64.4642V64.7057H58.8703Z" fill="#74613E"/>
<path d="M67.7624 64.7057H64.2607V64.4642C65.0033 64.4401 65.3716 64.1864 65.3716 63.6975V57.6419C65.3716 57.1287 65.0033 56.8752 64.2607 56.8752H62.6608C61.9242 56.8752 61.5559 57.1287 61.5559 57.6419V63.6975C61.5559 64.1864 61.9242 64.4401 62.6608 64.4642V64.7057H59.165V64.4642C59.9016 64.4401 60.2699 64.1864 60.2699 63.6975V57.3823C60.2699 56.8933 59.9016 56.6396 59.165 56.6155V56.374H67.7684V56.6155C67.0319 56.6396 66.6636 56.8993 66.6636 57.3823V63.6975C66.6636 64.1864 67.0319 64.4401 67.7684 64.4642V64.7057H67.7624Z" fill="#74613E"/>
<defs>
<linearGradient id="paint0_linear_784_14933" x1="32.2226" y1="1.89898" x2="68.0811" y2="37.7575" gradientUnits="userSpaceOnUse">
<stop offset="0.0872932" stop-color="#C2B59B"/>
<stop offset="1" stop-color="#5C4E30"/>
</linearGradient>
</defs>
</svg>
