<svg width="16" height="16" viewBox="0 0 16 16" fill="none" xmlns="http://www.w3.org/2000/svg">
<g clip-path="url(#clip0_1328_9245)">
<path d="M8.00033 2.66797C4.66699 2.66797 1.82033 4.7413 0.666992 7.66797C1.82033 10.5946 4.66699 12.668 8.00033 12.668C11.3337 12.668 14.1803 10.5946 15.3337 7.66797C14.1803 4.7413 11.3337 2.66797 8.00033 2.66797ZM8.00033 11.0013C6.16033 11.0013 4.66699 9.50797 4.66699 7.66797C4.66699 5.82797 6.16033 4.33464 8.00033 4.33464C9.84033 4.33464 11.3337 5.82797 11.3337 7.66797C11.3337 9.50797 9.84033 11.0013 8.00033 11.0013ZM8.00033 5.66797C6.89366 5.66797 6.00033 6.5613 6.00033 7.66797C6.00033 8.77464 6.89366 9.66797 8.00033 9.66797C9.10699 9.66797 10.0003 8.77464 10.0003 7.66797C10.0003 6.5613 9.10699 5.66797 8.00033 5.66797Z" fill="#D6DCE1"/>
</g>
<defs>
<clipPath id="clip0_1328_9245">
<rect width="16" height="16" fill="white"/>
</clipPath>
</defs>
</svg>
