<svg width="12" height="13" viewBox="0 0 12 13" fill="none" xmlns="http://www.w3.org/2000/svg">
<path d="M10.82 8.67253L9.12669 8.47919C8.72003 8.43253 8.32003 8.57253 8.03336 8.85919L6.80669 10.0859C4.92003 9.12586 3.37336 7.58586 2.41336 5.69253L3.64669 4.45919C3.93336 4.17253 4.07336 3.77253 4.02669 3.36586L3.83336 1.68586C3.75336 1.01253 3.18669 0.505859 2.50669 0.505859H1.35336C0.600027 0.505859 -0.0266396 1.13253 0.0200271 1.88586C0.37336 7.57919 4.92669 12.1259 10.6134 12.4792C11.3667 12.5259 11.9934 11.8992 11.9934 11.1459V9.99253C12 9.31919 11.4934 8.75253 10.82 8.67253Z" fill="#9BA7B0"/>
</svg>
