<svg width="40" height="40" viewBox="0 0 40 40" fill="none" xmlns="http://www.w3.org/2000/svg">
<rect width="40" height="40" rx="20" fill="#484848"/>
<g clip-path="url(#clip0_784_14973)">
<path d="M10.3533 19.6193L14.9617 21.4537L16.7454 27.5717C16.8595 27.9635 17.3088 28.1083 17.607 27.8483L20.1758 25.6149C20.4451 25.3809 20.8286 25.3692 21.11 25.5871L25.7432 29.1746C26.0622 29.4219 26.5141 29.2355 26.5941 28.8244L29.9882 11.4125C30.0756 10.9635 29.6618 10.5888 29.2609 10.7542L10.3479 18.5355C9.88113 18.7275 9.88519 19.4322 10.3533 19.6193ZM16.4579 20.4772L25.4645 14.5611C25.6263 14.4551 25.7929 14.6885 25.6539 14.8261L18.2209 22.1949C17.9596 22.4543 17.7911 22.8014 17.7433 23.1781L17.4901 25.1793C17.4566 25.4465 17.1047 25.4731 17.0355 25.2145L16.0617 21.5652C15.9502 21.149 16.1127 20.7044 16.4579 20.4772Z" fill="#F6F6F6"/>
</g>
<defs>
<clipPath id="clip0_784_14973">
<rect width="20" height="20" fill="white" transform="translate(10 10)"/>
</clipPath>
</defs>
</svg>
