<svg width="40" height="40" viewBox="0 0 40 40" fill="none" xmlns="http://www.w3.org/2000/svg">
<rect width="40" height="40" rx="20" fill="#9BA7B0"/>
<g clip-path="url(#clip0_413_47406)">
<path d="M10.3533 19.6198L14.9617 21.4542L16.7454 27.5721C16.8595 27.964 17.3088 28.1088 17.607 27.8488L20.1758 25.6154C20.4451 25.3814 20.8286 25.3697 21.11 25.5876L25.7432 29.1751C26.0622 29.4224 26.5141 29.236 26.5941 28.8249L29.9882 11.413C30.0756 10.9639 29.6618 10.5893 29.2609 10.7547L10.3479 18.536C9.88113 18.728 9.88519 19.4327 10.3533 19.6198ZM16.4579 20.4777L25.4645 14.5616C25.6263 14.4556 25.7929 14.689 25.6539 14.8265L18.2209 22.1954C17.9596 22.4548 17.7911 22.8019 17.7433 23.1786L17.4901 25.1798C17.4566 25.447 17.1047 25.4735 17.0355 25.215L16.0617 21.5657C15.9502 21.1495 16.1127 20.7049 16.4579 20.4777Z" fill="white"/>
</g>
<defs>
<clipPath id="clip0_413_47406">
<rect width="20" height="20" fill="white" transform="translate(10 10)"/>
</clipPath>
</defs>
</svg>
