<svg width="20" height="20" viewBox="0 0 20 20" fill="none" xmlns="http://www.w3.org/2000/svg">
<path d="M0.353259 9.61929L4.96167 11.4537L6.7454 17.5717C6.85954 17.9635 7.3088 18.1083 7.607 17.8483L10.1758 15.6149C10.4451 15.3809 10.8286 15.3692 11.11 15.5871L15.7432 19.1746C16.0622 19.4219 16.5141 19.2355 16.5941 18.8244L19.9882 1.41252C20.0756 0.963453 19.6618 0.588825 19.2609 0.754205L0.347859 8.5355C-0.118874 8.72747 -0.114808 9.43222 0.353259 9.61929ZM6.45793 10.4772L15.4645 4.56113C15.6263 4.45512 15.7929 4.68855 15.6539 4.82605L8.22087 12.1949C7.9596 12.4543 7.79107 12.8014 7.74334 13.1781L7.49014 15.1793C7.4566 15.4465 7.10467 15.4731 7.03554 15.2145L6.06173 11.5652C5.9502 11.149 6.11273 10.7044 6.45793 10.4772Z" fill="#9BA7B0"/>
</svg>
