<svg width="18" height="18" viewBox="0 0 18 18" fill="none" xmlns="http://www.w3.org/2000/svg">
<path d="M1.50033 4.00008C1.04199 4.00008 0.666992 4.37508 0.666992 4.83342V15.6667C0.666992 16.5834 1.41699 17.3334 2.33366 17.3334H13.167C13.6253 17.3334 14.0003 16.9584 14.0003 16.5001C14.0003 16.0417 13.6253 15.6667 13.167 15.6667H3.16699C2.70866 15.6667 2.33366 15.2917 2.33366 14.8334V4.83342C2.33366 4.37508 1.95866 4.00008 1.50033 4.00008ZM15.667 0.666748H5.66699C4.75033 0.666748 4.00033 1.41675 4.00033 2.33341V12.3334C4.00033 13.2501 4.75033 14.0001 5.66699 14.0001H15.667C16.5837 14.0001 17.3337 13.2501 17.3337 12.3334V2.33341C17.3337 1.41675 16.5837 0.666748 15.667 0.666748ZM9.00033 11.0834V3.58341L13.5587 7.00008C13.7837 7.16675 13.7837 7.50008 13.5587 7.66675L9.00033 11.0834Z" fill="#9BA7B0"/>
</svg>
