<svg width="18" height="18" viewBox="0 0 18 18" fill="none" xmlns="http://www.w3.org/2000/svg">
<path d="M15.2502 9.00008C15.2502 8.80842 15.2419 8.62508 15.2252 8.43341L16.7752 7.25841C17.1085 7.00841 17.2002 6.54175 16.9919 6.17508L15.4335 3.48341C15.2252 3.11675 14.7752 2.96675 14.3919 3.13341L12.6002 3.89175C12.2919 3.67508 11.9669 3.48341 11.6252 3.32508L11.3835 1.40008C11.3335 0.983415 10.9752 0.666748 10.5585 0.666748H7.45021C7.02521 0.666748 6.66688 0.983415 6.61688 1.40008L6.37521 3.32508C6.03354 3.48341 5.70854 3.67508 5.40021 3.89175L3.60854 3.13341C3.22521 2.96675 2.77521 3.11675 2.56688 3.48341L1.00854 6.18341C0.800209 6.55008 0.891876 7.00842 1.22521 7.26675L2.77521 8.44175C2.75854 8.62508 2.75021 8.80842 2.75021 9.00008C2.75021 9.19175 2.75854 9.37508 2.77521 9.56675L1.22521 10.7417C0.891876 10.9917 0.800209 11.4584 1.00854 11.8251L2.56688 14.5167C2.77521 14.8834 3.22521 15.0334 3.60854 14.8667L5.40021 14.1084C5.70854 14.3251 6.03354 14.5167 6.37521 14.6751L6.61688 16.6001C6.66688 17.0168 7.02521 17.3334 7.44188 17.3334H10.5502C10.9669 17.3334 11.3252 17.0168 11.3752 16.6001L11.6169 14.6751C11.9585 14.5167 12.2835 14.3251 12.5919 14.1084L14.3835 14.8667C14.7669 15.0334 15.2169 14.8834 15.4252 14.5167L16.9835 11.8251C17.1919 11.4584 17.1002 11.0001 16.7669 10.7417L15.2169 9.56675C15.2419 9.37508 15.2502 9.19175 15.2502 9.00008ZM9.03354 11.9167C7.42521 11.9167 6.11688 10.6084 6.11688 9.00008C6.11688 7.39175 7.42521 6.08342 9.03354 6.08342C10.6419 6.08342 11.9502 7.39175 11.9502 9.00008C11.9502 10.6084 10.6419 11.9167 9.03354 11.9167Z" fill="#9BA7B0"/>
</svg>
