<svg width="20" height="12" viewBox="0 0 20 12" fill="none" xmlns="http://www.w3.org/2000/svg">
<path d="M13.333 5.16675C14.7163 5.16675 15.8247 4.05008 15.8247 2.66675C15.8247 1.28341 14.7163 0.166748 13.333 0.166748C11.9497 0.166748 10.833 1.28341 10.833 2.66675C10.833 4.05008 11.9497 5.16675 13.333 5.16675ZM6.66634 5.16675C8.04967 5.16675 9.15801 4.05008 9.15801 2.66675C9.15801 1.28341 8.04967 0.166748 6.66634 0.166748C5.28301 0.166748 4.16634 1.28341 4.16634 2.66675C4.16634 4.05008 5.28301 5.16675 6.66634 5.16675ZM6.66634 6.83341C4.72467 6.83341 0.833008 7.80841 0.833008 9.75008V11.0001C0.833008 11.4584 1.20801 11.8334 1.66634 11.8334H11.6663C12.1247 11.8334 12.4997 11.4584 12.4997 11.0001V9.75008C12.4997 7.80841 8.60801 6.83341 6.66634 6.83341ZM13.333 6.83341C13.0913 6.83341 12.8163 6.85008 12.5247 6.87508C12.5413 6.88341 12.5497 6.90008 12.558 6.90841C13.508 7.60008 14.1663 8.52508 14.1663 9.75008V11.0001C14.1663 11.2917 14.108 11.5751 14.0163 11.8334H18.333C18.7913 11.8334 19.1663 11.4584 19.1663 11.0001V9.75008C19.1663 7.80841 15.2747 6.83341 13.333 6.83341Z" fill="#9BA7B0"/>
</svg>
