<svg width="40" height="40" viewBox="0 0 40 40" fill="none" xmlns="http://www.w3.org/2000/svg">
<rect width="40" height="40" rx="20" fill="#9BA7B0"/>
<path d="M25.9368 20.7343C25.6458 20.3843 25.729 20.2286 25.9368 19.9157C25.9405 19.9121 28.3428 16.7507 28.5904 15.6786L28.5919 15.6779C28.7149 15.2871 28.5919 15 27.9971 15H26.029C25.528 15 25.297 15.2464 25.1732 15.5221C25.1732 15.5221 24.1712 17.8064 22.7537 19.2871C22.2961 19.715 22.0846 19.8521 21.8349 19.8521C21.7119 19.8521 21.5206 19.715 21.5206 19.3243V15.6779C21.5206 15.2093 21.3804 15 20.9656 15H17.871C17.5567 15 17.37 15.2186 17.37 15.4221C17.37 15.8664 18.0787 15.9686 18.1522 17.2186V19.9307C18.1522 20.525 18.039 20.6343 17.7877 20.6343C17.1187 20.6343 15.4949 18.3407 14.5326 15.7157C14.3384 15.2064 14.1486 15.0007 13.6438 15.0007H11.675C11.1133 15.0007 11 15.2471 11 15.5229C11 16.01 11.669 18.4321 14.1111 21.6321C15.7387 23.8164 18.0307 25 20.1158 25C21.3691 25 21.5221 24.7371 21.5221 24.285C21.5221 22.1979 21.4089 22.0007 22.0366 22.0007C22.3276 22.0007 22.8287 22.1379 23.9987 23.1914C25.336 24.4407 25.5558 25 26.3043 25H28.2723C28.8334 25 29.1176 24.7371 28.9541 24.2186C28.5799 23.1279 26.0508 20.8843 25.9368 20.7343Z" fill="white"/>
</svg>
