<svg width="40" height="40" viewBox="0 0 40 40" fill="none" xmlns="http://www.w3.org/2000/svg">
<rect width="40" height="40" rx="20" fill="#9BA7B0"/>
<path d="M25.8463 12.9238H14.1537C11.8597 12.9238 10 14.7835 10 17.0776V22.9226C10 25.2166 11.8597 27.0763 14.1537 27.0763H25.8463C28.1403 27.0763 30 25.2166 30 22.9226V17.0776C30 14.7835 28.1403 12.9238 25.8463 12.9238ZM23.0371 20.2845L17.5681 22.8928C17.4224 22.9623 17.2541 22.8561 17.2541 22.6947V17.3149C17.2541 17.1512 17.4268 17.045 17.5729 17.119L23.0418 19.8905C23.2044 19.9728 23.2016 20.206 23.0371 20.2845Z" fill="white"/>
</svg>
